inDegrees=no
num_controls=7
num_derivatives=13
num_iterations=152
num_multipliers=7
num_parameters=0
num_slacks=7
num_states=26
objective=5.635815
objective_accelerations=0.587471
objective_balance=0.020314
objective_effort=0.447949
objective_height=4.509258
objective_ligament=0.070823
solver_duration=1261.211554
status=Solve_Succeeded
success=true
DataType=double
version=3
OpenSimVersion=4.4-2022-07-23-0e9fedc
endheader
time	/jointset/ground_pelvis/pelvis_tilt/value	/jointset/ground_pelvis/pelvis_tx/value	/jointset/ground_pelvis/pelvis_ty/value	/jointset/hip_r/hip_flexion_r/value	/jointset/hip_r/hip_adduction_r/value	/jointset/hip_r/hip_rotation_r/value	/jointset/back/lumbar_extension/value	/jointset/patellofemoral_r/patellar_flexion_r/value	/jointset/knee_r/knee_flexion_r/value	/jointset/knee_r/knee_adduction_r/value	/jointset/knee_r/knee_rotation_r/value	/jointset/ankle_r/ankle_angle_r/value	/jointset/subtalar_r/subtalar_angle_r/value	/jointset/ground_pelvis/pelvis_tilt/speed	/jointset/ground_pelvis/pelvis_tx/speed	/jointset/ground_pelvis/pelvis_ty/speed	/jointset/hip_r/hip_flexion_r/speed	/jointset/hip_r/hip_adduction_r/speed	/jointset/hip_r/hip_rotation_r/speed	/jointset/back/lumbar_extension/speed	/jointset/patellofemoral_r/patellar_flexion_r/speed	/jointset/knee_r/knee_flexion_r/speed	/jointset/knee_r/knee_adduction_r/speed	/jointset/knee_r/knee_rotation_r/speed	/jointset/ankle_r/ankle_angle_r/speed	/jointset/subtalar_r/subtalar_angle_r/speed	/forceset/tau_hip_flexion_r	/forceset/tau_hip_adduction_r	/forceset/tau_hip_rotation_r	/forceset/tau_knee_flexion_r	/forceset/tau_ankle_angle_r	/forceset/tau_subtalar_angle_r	/forceset/tau_lumbar_extension	lambda_cid13_p0	lambda_cid14_p0	lambda_cid14_p1	lambda_cid14_p2	lambda_cid14_p3	lambda_cid14_p4	lambda_cid14_p5	/jointset/ground_pelvis/pelvis_tilt/accel	/jointset/ground_pelvis/pelvis_tx/accel	/jointset/ground_pelvis/pelvis_ty/accel	/jointset/hip_r/hip_flexion_r/accel	/jointset/hip_r/hip_adduction_r/accel	/jointset/hip_r/hip_rotation_r/accel	/jointset/back/lumbar_extension/accel	/jointset/patellofemoral_r/patellar_flexion_r/accel	/jointset/knee_r/knee_flexion_r/accel	/jointset/knee_r/knee_adduction_r/accel	/jointset/knee_r/knee_rotation_r/accel	/jointset/ankle_r/ankle_angle_r/accel	/jointset/subtalar_r/subtalar_angle_r/accel	gamma_cid13_p0	gamma_cid14_p0	gamma_cid14_p1	gamma_cid14_p2	gamma_cid14_p3	gamma_cid14_p4	gamma_cid14_p5
0.5	-0.1420086327216806	0.02923390357468975	0.8097818581253967	0.8835990544251704	-0.2193852615115787	-0.1358151779541079	-0.64562043243018	0.9425179902474158	0.9425179902474344	-0.0617140141307479	0.174530159558179	0.295135049597109	0.1444780630395211	-0.3757241676027376	-0.2007829187424859	-0.4897042144060697	1.850714348093382	-0.02555435446548888	0.1741593783488262	-0.7393134874455185	1.900341857945003	1.900341857945003	-0.4364021577404825	-9.231698228600711e-06	0.5299564171147974	0.1745041539765697	-0.1983882508567263	0.0082155425961102	0.01570637817709437	-0.2804497052950866	-0.007531048799779357	0.003799545177082295	0.2403932039291024	-9.19050715717456	-44.6201343886914	-4.702997061407796	-0.4954061385509236	-3.367879496162376	-641.4845469987611	63.76405466422643	0.3136984273517366	0.5754143249117523	-0.4070425329697954	-1.258906500674212	-0.2114715814199808	-0.5964033492207107	1.80007477073498	-1.352565341058045	-1.352565341058045	0.4270073253493267	-0.004554168700974584	-0.5631798632738257	-0.3723665694390825	-1.503511231847905e-07	-1.775180518831369e-07	3.939470330134304e-07	-1.828000169620774e-06	5.485327885765458e-08	-2.600122839143812e-07	3.371317568139201e-07
0.51	-0.1457492510345041	0.02725498595831749	0.8048656081168049	0.9020402609310442	-0.2196523151558414	-0.1341013243394956	-0.6529230264908858	0.9614512560703776	0.9614512560704004	-0.06605276122097711	0.1745303053262268	0.3004052205415253	0.1462023436233499	-0.3723331220507274	-0.1949887113242401	-0.4934357187767492	1.837279402814436	-0.0278474978007039	0.168669010844194	-0.7211170835145947	1.886059991693052	1.88605999169305	-0.4312667631780424	2.164752100703511e-05	0.5239917546735801	0.1703114510354966	-0.2051138831417492	0.00963132844219936	0.01593395128873343	-0.2845843832374365	-0.009349565229077667	0.004055391295674915	0.2465531614979424	-8.222157370675564	-45.52586617958887	-4.92177469618897	-0.264855893554917	-3.069256460818253	-646.3823497072968	63.73398247175638	0.361742512921605	0.5832179897594822	-0.3397480082939447	-1.422947623278444	-0.2371538259746089	-0.5169968751510744	1.842659381382231	-1.503661569448568	-1.503661569449009	0.5689397011863199	0.004036164619392799	-0.6260382121354043	-0.448951476590515	-1.394988280786369e-07	-1.217502253564243e-07	7.476089241773903e-07	-1.361165362048359e-06	-1.255620952344149e-08	-2.28593310332277e-07	5.588708432626881e-07
0.52	-0.1494539719130449	0.02533436922402339	0.7999153343406707	0.9203396861677797	-0.2199420838567295	-0.1324407030847511	-0.6600410092768593	0.9802341703704004	0.9802341703703906	-0.0703377275296725	0.174530185325989	0.3056131591060119	0.1478834513137385	-0.3685446807468818	-0.1891227423268529	-0.496508967914505	1.822358094264541	-0.03009736579201529	0.163512906376903	-0.7023912324992257	1.870271553353702	1.870271553353697	-0.4256460014358082	-6.238536441269989e-05	0.5175099411287746	0.1658695752884608	-0.2118395154267549	0.01104711428828374	0.01616152440021552	-0.2887190611798024	-0.01116808165838096	0.004311237414250976	0.2527131190668012	-7.310171782761916	-46.42838428350902	-5.132199287023314	-0.04453606870997158	-2.805195082578768	-651.2403762400552	63.78041085585246	0.3931775777187919	0.5897666407400602	-0.2753914863850533	-1.556179154864283	-0.2028165126392141	-0.5295507417523311	1.905964187623998	-1.653879758537953	-1.653879758537953	0.5240807613081079	-0.02753658963226284	-0.666610083991434	-0.422201130631482	-8.856933367380558e-08	1.038408313599845e-08	1.278380448591932e-06	-2.119975487380709e-07	-1.39534079178339e-07	-1.459498618724838e-07	9.134169799646988e-07
0.53	-0.1531190888854012	0.02347279928789805	0.794937659994787	0.9384827040134549	-0.2202535538707902	-0.130833244211898	-0.6669690853913234	0.9988513428327107	0.9988513428327377	-0.07456763537220966	0.1745298684903826	0.3107540013755867	0.1495199527406879	-0.364424914207495	-0.1831746497946984	-0.4989094430321599	1.805994865093458	-0.03219619761130573	0.1580471997865326	-0.6831512140874666	1.852914846842086	1.852914846842084	-0.4202294912583094	-1.162871910502156e-05	0.5105869543048456	0.161381735568051	-0.2179987716589839	0.01126937731408608	0.01649217448910772	-0.2939754783665455	-0.01177817000704844	0.004904050609661164	0.2584923268464198	-6.455499871845016	-46.92062229530023	-5.095263282986537	0.1030179529067156	-2.900040305304612	-656.2849850949104	64.51082024780679	0.4294571731184036	0.5997785791359775	-0.2049272981735019	-1.713974216148276	-0.2132105789463766	-0.5449106422274675	1.943937113820231	-1.813767573830039	-1.813767573829556	0.5665543359878138	0.01990934593172944	-0.7159241649910225	-0.4691309836965016	-5.819046548307639e-08	8.42426238677275e-08	1.543846107225766e-06	4.188765620196407e-07	-2.073826380601248e-07	-9.70528897004234e-08	1.101834070608623e-06
0.54	-0.1567413919961476	0.02167119988103086	0.7899394705429833	0.9564545736838402	-0.2205859710155138	-0.1292784084098736	-0.673702578032495	1.01728750793464	1.017287507934695	-0.07874015447496023	0.1745297647321126	0.3158234575402443	0.1511101646522432	-0.3599819084253164	-0.1771286364752225	-0.5006119890985322	1.788128459205657	-0.03428679192547789	0.1529882922142364	-0.6634745378409739	1.834070081276209	1.834070081276211	-0.4141682534801248	-1.976990101418003e-05	0.5032327201450213	0.1566116722096073	-0.2241580278911964	0.01149164033983938	0.01682282457798774	-0.2992318955532823	-0.01238825835572844	0.005496863804991272	0.2642715346260573	-5.658522167643249	-47.41056868253351	-5.049764968600085	0.2398865528282872	-3.024388442315801	-661.3209489268963	65.26788932420699	0.457825426277123	0.6093507982043396	-0.1358056761284979	-1.856814498207835	-0.2011690116155438	-0.4481909381374446	1.993295754570719	-1.951491569389866	-1.95149156938987	0.6530262814452789	-0.03931615507566346	-0.7528595511705037	-0.4786458582382347	-5.054846033773705e-08	9.362584707698614e-08	1.515781871804348e-06	4.763193422936444e-07	-2.098115339588924e-07	-8.549244448500408e-08	1.106448812422322e-06
